<svg width="26" height="9" viewBox="0 0 26 9" fill="none" xmlns="http://www.w3.org/2000/svg">
<path d="M0.950163 8.85186C0.774163 8.85186 0.666163 8.77586 0.626163 8.62386C0.594163 8.52786 0.578163 8.39186 0.578163 8.21586C0.578163 7.87186 0.594163 7.44786 0.626163 6.94386C0.666163 6.46386 0.686163 6.03586 0.686163 5.65986C0.686163 5.23586 0.698163 4.59986 0.722163 3.75186L0.746163 1.85586C0.746163 1.78386 0.734163 1.67586 0.710163 1.53186L0.674163 1.23186V1.17186C0.674163 0.987857 0.702163 0.851857 0.758163 0.763857C0.814163 0.675857 0.918163 0.631857 1.07016 0.631857C1.27816 0.631857 1.50616 0.691857 1.75416 0.811857C2.00216 0.931857 2.18216 1.08386 2.29416 1.26786C2.52616 1.65186 2.64216 2.13186 2.64216 2.70786C2.64216 3.13986 2.60616 3.50386 2.53416 3.79986C2.46216 4.08786 2.33816 4.35586 2.16216 4.60386C2.37816 4.81186 2.52216 5.07986 2.59416 5.40786C2.67416 5.72786 2.71416 6.13186 2.71416 6.61986C2.71416 7.10786 2.63016 7.53186 2.46216 7.89186C2.27016 8.29986 1.99016 8.57986 1.62216 8.73186C1.39816 8.81186 1.17416 8.85186 0.950163 8.85186ZM1.33416 4.25586C1.75016 4.24786 1.95816 3.76386 1.95816 2.80386C1.95816 1.77186 1.79416 1.23186 1.46616 1.18386C1.37816 1.36786 1.33416 1.79986 1.33416 2.47986V4.25586ZM1.26216 8.23986C1.51816 8.18386 1.71816 8.03186 1.86216 7.78386C2.00616 7.53586 2.07816 7.25186 2.07816 6.93186C2.07816 6.59586 2.05816 6.29986 2.01816 6.04386C1.98616 5.84386 1.94216 5.67986 1.88616 5.55186C1.83816 5.41586 1.77016 5.29186 1.68216 5.17986C1.58616 5.05986 1.47416 4.98786 1.34616 4.96386C1.31416 5.41986 1.29816 6.02386 1.29816 6.77586C1.29816 6.82386 1.29016 6.97586 1.27416 7.23186L1.25016 7.63986C1.25016 7.65586 1.25416 7.66786 1.26216 7.67586V7.69986V8.23986ZM4.52804 8.89986C4.39204 8.89986 4.28004 8.81186 4.19204 8.63586C4.28004 8.46786 4.32404 7.78786 4.32404 6.59586C4.32404 6.31586 4.30404 6.01186 4.26404 5.68386L4.22804 5.33586C4.20404 5.11986 4.19204 4.95586 4.19204 4.84386V4.53186C4.11204 4.33186 3.96404 3.95986 3.74804 3.41586C3.54004 2.87186 3.37204 2.41586 3.24404 2.04786C3.09204 1.62386 3.01604 1.33586 3.01604 1.18386V1.12386L3.29204 0.919857C3.42804 0.935857 3.57204 1.11186 3.72404 1.44786C3.85204 1.74386 3.99204 2.16786 4.14404 2.71986C4.30404 3.27186 4.38404 3.56386 4.38404 3.59586C4.41604 3.50786 4.48004 3.20786 4.57604 2.69586C4.67204 2.18386 4.78004 1.73186 4.90004 1.33986C5.03604 0.947857 5.17604 0.751857 5.32004 0.751857C5.40004 0.751857 5.46804 0.775857 5.52404 0.823857C5.58804 0.871857 5.62004 0.931857 5.62004 1.00386C5.62004 1.41186 5.50804 1.98786 5.28404 2.73186C5.04404 3.53986 4.92404 4.12386 4.92404 4.48386V8.09586C4.92404 8.63186 4.79204 8.89986 4.52804 8.89986ZM7.44648 8.89986C7.31048 8.89986 7.19848 8.81186 7.11048 8.63586C7.19848 8.46786 7.24248 7.78786 7.24248 6.59586C7.24248 6.31586 7.22248 6.01186 7.18248 5.68386L7.14648 5.33586C7.12248 5.11986 7.11048 4.95586 7.11048 4.84386V4.53186C7.03048 4.33186 6.88248 3.95986 6.66648 3.41586C6.45848 2.87186 6.29048 2.41586 6.16248 2.04786C6.01048 1.62386 5.93448 1.33586 5.93448 1.18386V1.12386L6.21048 0.919857C6.34648 0.935857 6.49048 1.11186 6.64248 1.44786C6.77048 1.74386 6.91048 2.16786 7.06248 2.71986C7.22248 3.27186 7.30248 3.56386 7.30248 3.59586C7.33448 3.50786 7.39848 3.20786 7.49448 2.69586C7.59048 2.18386 7.69848 1.73186 7.81848 1.33986C7.95448 0.947857 8.09448 0.751857 8.23848 0.751857C8.31848 0.751857 8.38648 0.775857 8.44248 0.823857C8.50648 0.871857 8.53848 0.931857 8.53848 1.00386C8.53848 1.41186 8.42648 1.98786 8.20248 2.73186C7.96248 3.53986 7.84248 4.12386 7.84248 4.48386V8.09586C7.84248 8.63186 7.71048 8.89986 7.44648 8.89986ZM10.7849 8.95986C10.5769 8.95986 10.3849 8.89186 10.2089 8.75586C10.0329 8.62786 9.88891 8.45186 9.77691 8.22786C9.54491 7.73986 9.40091 7.20786 9.34491 6.63186C9.27291 6.08786 9.23691 5.56386 9.23691 5.05986C9.23691 4.96386 9.24091 4.88386 9.24891 4.81986V4.60386C9.24891 4.56386 9.24491 4.54386 9.23691 4.54386V4.32786L9.24891 3.48786C9.25691 3.23186 9.28891 2.82386 9.34491 2.26386C9.38491 1.87986 9.47691 1.50786 9.62091 1.14786C9.67691 0.987857 9.74891 0.867857 9.83691 0.787857C9.92491 0.699857 10.0249 0.655857 10.1369 0.655857C10.4569 0.655857 10.7449 0.715857 11.0009 0.835857C11.2569 0.947857 11.4729 1.10786 11.6489 1.31586C11.8089 1.51586 11.9449 1.76386 12.0569 2.05986C12.1689 2.34786 12.2489 2.65586 12.2969 2.98386C12.3449 3.31986 12.3689 3.67586 12.3689 4.05186V4.14786C12.3689 4.39586 12.3729 4.61986 12.3809 4.81986L12.3929 5.50386C12.3929 7.80786 11.8569 8.95986 10.7849 8.95986ZM10.7369 8.45586C10.8809 8.45586 11.0129 8.39986 11.1329 8.28786C11.2529 8.16786 11.3449 8.00786 11.4089 7.80786C11.5609 7.39986 11.6529 6.95986 11.6849 6.48786C11.7249 6.07986 11.7449 5.72786 11.7449 5.43186C11.7449 5.07186 11.7169 4.59986 11.6609 4.01586C11.6129 3.39986 11.5889 2.93986 11.5889 2.63586V2.41986C11.5729 2.11586 11.4689 1.85186 11.2769 1.62786C11.0929 1.40386 10.8649 1.29186 10.5929 1.29186C10.3209 1.29186 10.1409 1.44786 10.0529 1.75986C9.97291 2.00786 9.93291 2.32786 9.93291 2.71986C9.93291 2.87186 9.93691 2.99986 9.94491 3.10386V3.42786L9.92091 3.97986C9.90491 4.14786 9.89691 4.33186 9.89691 4.53186C9.89691 4.96386 9.90891 5.39186 9.93291 5.81586C9.96491 6.41586 10.0449 6.99986 10.1729 7.56786C10.3009 8.15986 10.4889 8.45586 10.7369 8.45586ZM14.5091 8.91186C14.3171 8.91186 14.1451 8.86786 13.9931 8.77986C13.8411 8.69986 13.7171 8.57986 13.6211 8.41986C13.4291 8.08386 13.3051 7.70386 13.2491 7.27986C13.1931 6.91186 13.1651 6.47186 13.1651 5.95986C13.1411 5.09586 13.1291 4.03986 13.1291 2.79186L13.1171 1.86786C13.1091 1.81986 13.1051 1.73986 13.1051 1.62786C13.0891 1.32386 13.0811 1.13986 13.0811 1.07586C13.1531 0.907857 13.2371 0.823857 13.3331 0.823857C13.4291 0.823857 13.5131 0.895857 13.5851 1.03986C13.6651 1.18386 13.7051 1.33986 13.7051 1.50786V4.77186C13.7051 5.09186 13.7331 5.51586 13.7891 6.04386C13.8451 6.69986 13.8731 7.12386 13.8731 7.31586C13.8731 7.90786 14.1251 8.20386 14.6291 8.20386C15.2051 8.20386 15.4931 6.05186 15.4931 1.74786V1.07586V0.967857C15.4851 0.943857 15.4811 0.911857 15.4811 0.871857C15.4811 0.775857 15.5011 0.707857 15.5411 0.667857C15.5891 0.619857 15.6771 0.595857 15.8051 0.595857C15.9091 0.595857 15.9891 0.627857 16.0451 0.691857C16.1091 0.747857 16.1491 0.815857 16.1651 0.895857C16.1731 0.943857 16.1771 1.03586 16.1771 1.17186C16.1771 1.29986 16.1651 1.50386 16.1411 1.78386C16.1091 2.01586 16.0931 2.21586 16.0931 2.38386C16.0931 2.56786 16.0851 2.73186 16.0691 2.87586L16.0451 3.37986V3.47586C16.0531 3.50786 16.0571 3.54386 16.0571 3.58386C16.0571 7.13586 15.5411 8.91186 14.5091 8.91186ZM20.3571 8.76786C20.2611 8.76786 20.1891 8.74386 20.1411 8.69586C20.0931 8.63986 20.0571 8.54786 20.0331 8.41986L19.9611 8.19186V8.16786V8.13186C19.9611 7.86786 19.6851 6.96786 19.1331 5.43186C18.5891 3.89586 18.1611 2.75986 17.8491 2.02386V8.05986L17.8971 8.14386C17.9051 8.15986 17.9211 8.18786 17.9451 8.22786C17.9691 8.26786 17.9811 8.30786 17.9811 8.34786C17.9811 8.45186 17.9451 8.53986 17.8731 8.61186C17.8011 8.68386 17.7131 8.71986 17.6091 8.71986C17.3531 8.71986 17.2251 8.47586 17.2251 7.98786L17.2131 5.93586C17.2051 5.31986 17.2011 4.63186 17.2011 3.87186C17.2011 3.61586 17.2131 3.24386 17.2371 2.75586C17.2611 2.25186 17.2731 1.87986 17.2731 1.63986C17.2731 1.26386 17.4171 0.967857 17.7051 0.751857V0.823857C17.7531 0.807857 17.7851 0.799857 17.8011 0.799857C17.9851 0.799857 18.2171 1.11986 18.4971 1.75986C18.7211 2.27186 18.9211 2.81186 19.0971 3.37986C19.2811 3.94786 19.5211 4.75586 19.8171 5.80386L19.9371 6.23586C20.1211 6.88386 20.2611 7.34786 20.3571 7.62786C20.5171 5.90786 20.5971 3.87586 20.5971 1.53186V1.37586C20.5891 1.32786 20.5851 1.27586 20.5851 1.21986C20.5851 0.979857 20.6811 0.859857 20.8731 0.859857C20.9851 0.859857 21.0691 0.903857 21.1251 0.991857C21.1891 1.07986 21.2211 1.19186 21.2211 1.32786V2.22786C21.2051 3.45986 21.1571 4.79586 21.0771 6.23586C20.9971 7.67586 20.9011 8.48786 20.7891 8.67186C20.5571 8.73586 20.4131 8.76786 20.3571 8.76786ZM23.9033 8.82786C23.6793 8.82786 23.4753 8.78786 23.2913 8.70786C23.1073 8.61986 22.9513 8.50786 22.8233 8.37186C22.7193 8.25986 22.6233 8.09586 22.5353 7.87986C22.4473 7.66386 22.3833 7.45586 22.3433 7.25586C22.3033 7.10386 22.2713 6.88386 22.2473 6.59586C22.2233 6.30786 22.2073 6.05986 22.1993 5.85186V5.15586V4.67586C22.1993 4.21186 22.2073 3.83186 22.2233 3.53586C22.2393 3.17586 22.2913 2.79586 22.3793 2.39586C22.4513 2.03586 22.5753 1.71986 22.7513 1.44786C22.9193 1.17586 23.1553 0.987857 23.4593 0.883857C23.6033 0.827857 23.7713 0.799857 23.9633 0.799857C24.3073 0.799857 24.4793 0.899857 24.4793 1.09986C24.4793 1.19586 24.4393 1.27586 24.3593 1.33986C24.2873 1.39586 24.1993 1.42386 24.0953 1.42386C24.0473 1.42386 24.0033 1.41986 23.9633 1.41186C23.9313 1.40386 23.8913 1.39986 23.8433 1.39986C23.7073 1.39986 23.5873 1.47186 23.4833 1.61586C23.3793 1.75986 23.2913 1.95986 23.2193 2.21586C23.0913 2.71186 23.0033 3.25186 22.9553 3.83586C22.9233 4.37986 22.9073 4.78386 22.9073 5.04786C22.9073 5.31986 22.9193 5.69186 22.9433 6.16386C22.9753 6.60386 23.0433 6.98786 23.1473 7.31586C23.2033 7.50786 23.2673 7.66386 23.3393 7.78386C23.4193 7.89586 23.5193 7.99186 23.6393 8.07186C23.7753 8.15986 23.9153 8.20386 24.0593 8.20386C24.4433 8.20386 24.6353 7.56386 24.6353 6.28386V5.73186C24.5793 5.70786 24.4873 5.69586 24.3593 5.69586H24.2513H24.1193C23.8393 5.69586 23.6993 5.60386 23.6993 5.41986C23.6993 5.30786 23.7353 5.22386 23.8073 5.16786C23.8873 5.10386 23.9873 5.07186 24.1073 5.07186V5.08386H24.2753C24.9953 5.08386 25.3553 5.20786 25.3553 5.45586C25.3553 5.52786 25.3353 5.67186 25.2953 5.88786C25.2473 6.07986 25.2233 6.22386 25.2233 6.31986C25.2233 6.45586 25.2353 6.66786 25.2593 6.95586L25.2833 7.59186C25.2833 7.97586 25.1473 8.27986 24.8753 8.50386C24.6113 8.71986 24.2873 8.82786 23.9033 8.82786Z" fill="#E7B03D"/>
</svg>
